<svg xmlns="http://www.w3.org/2000/svg" width="365.424" height="100.009" viewBox="0 0 365.424 100.009"><g transform="translate(-80.998 -5.992)"><g transform="translate(81 6)"><path d="M49.022,17.932q-2.53,1.6-7.89,1.6H31.8c-1.857-.272-4.936.792-6.883,2.372S22,26.032,22,29.558c-.328,2.83.957,6.362,2.875,7.89A10.771,10.771,0,0,0,31.8,39.741h5.519V37.709a1.7,1.7,0,0,0-1.7-1.7H31.8a6.666,6.666,0,0,1-4.392-1.4c-1.115-.934-1.67-2.615-1.67-5.055a6.141,6.141,0,0,1,1.709-4.783A6.3,6.3,0,0,1,31.8,23.258h9.255a57.32,57.32,0,0,1,8.241.43c1.211-.045,3.158,1.245,4.353,2.875s1.789,4.392,1.789,8.281c.323,2.751-.945,8.021-2.836,11.779-.906,2.706-4.772,6.832-8.632,9.215s-8.621,3.577-14.27,3.577c-3.872.43-10.641-1.245-15.124-3.736C11.3,54.389,6.553,49.708,3.961,45.22A30.345,30.345,0,0,1,.066,29.711C-.381,25.494,1.363,18.464,3.955,14c1.364-3.289,6.17-7.868,10.732-10.228A33.173,33.173,0,0,1,30.162.238,37.944,37.944,0,0,1,42.139,1.873a15.938,15.938,0,0,1,7.115,4.313,8.817,8.817,0,0,1,2.292,5.87,6.451,6.451,0,0,1-2.53,5.87" transform="translate(0.002 -0.09)" fill="#7400be"/><path d="M102.06,44.74q0-7.93,17.111-7.93t17.111,7.93q0,7.93-17.111,7.93T102.06,44.74" transform="translate(-44.291 -15.975)" fill="#7400be"/><path d="M170.652,8.343c1.166-1.9,5.224-4.613,9.062-6.068A36.316,36.316,0,0,1,192.625.1a41.887,41.887,0,0,1,12.832,1.749,18.854,18.854,0,0,1,8.128,4.743,9.515,9.515,0,0,1,2.762,6.572c.453,2.315-1.324,5.026-3.968,6.068s-6.532,1.557-11.666,1.557H187.649v1.868c0,1.03,2.026,1.868,4.528,1.868h6.2a24.171,24.171,0,0,1,9.877,1.868c2.049.628,4.975,3.045,6.532,5.406a14.978,14.978,0,0,1,2.332,8.439c.351,2.774-1.025,7.336-3.074,10.188-1.019,2.094-5.043,5.055-8.983,6.611a38.744,38.744,0,0,1-14.23,2.332,38.957,38.957,0,0,1-12.209-1.789,19.781,19.781,0,0,1-8.592-5.213,11.349,11.349,0,0,1-3.147-7.93,7.317,7.317,0,0,1,2.372-6.028c.889-1.03,3.606-1.97,6.068-2.1a33.65,33.65,0,0,1,8.128.662L199.083,40V38.094c0-1.053-3.232-2.53-7.223-3.3l-8.485-1.636c-4.206-.458-9.668-2.926-12.209-5.519-2.106-1.4-3.809-6.068-3.809-10.421-.379-2.3,1.1-6.272,3.306-8.864" transform="translate(-72.406 -0.029)" fill="#7400be"/><path d="M263.911,2.927Q270.329.092,283.778.092c6.7-.323,15.577.945,19.828,2.836s6.379,4.834,6.379,8.824a8.207,8.207,0,0,1-3.849,7.738,18.4,18.4,0,0,1-8.773,2.06,2.175,2.175,0,0,0-2.179,2.564c.283,2.643.572,7.438.572,11.745.34,6.334-1,14.411-2.994,18.039a9.668,9.668,0,0,1-8.983,5.445c-2.966.623-6.985-1.811-8.983-5.445S271.8,44.253,271.8,35.859c0-4.3.283-9.1.572-11.745a2.167,2.167,0,0,0-2.179-2.564c-2.275.34-6.221-.583-8.813-2.06-2.145-.594-3.889-4.058-3.889-7.738-.736-2.983,2.14-6.934,6.419-8.824" transform="translate(-111.695 -0.018)" fill="#7400be"/><path d="M378.21,44.467V14.841a1.868,1.868,0,1,0-3.736,0V44.467a1.868,1.868,0,1,0,3.736,0M361.1,55.431c-2.994-1.387-6.911-6.107-8.751-10.539a39.367,39.367,0,0,1-2.762-15.2c-.317-3.962.917-10.771,2.762-15.2.838-3.226,4.755-7.947,8.751-10.539S370.178.056,376.348.056c4.432-.447,11.236,1.3,15.2,3.889,2.966,1.387,6.866,6.107,8.711,10.539a39.387,39.387,0,0,1,2.762,15.2c.317,3.962-.923,10.771-2.762,15.2-.843,3.226-4.743,7.947-8.711,10.539-2.23,2.145-9.034,3.889-15.2,3.889-4.426.447-11.253-1.3-15.243-3.889" transform="translate(-151.692 0.006)" fill="#7400be"/><path d="M477.48,3.926q3.736,3.846,5.207,12.634l3.306,18.979a1.879,1.879,0,1,0,3.7-.645l-3.968-22.686a21.556,21.556,0,0,1-.311-3.736c-.334-1.891.974-4.641,2.915-6.141s4.732-2.258,8.36-2.258c2.394-.328,6.011.962,8.089,2.875,1.545.849,3.617,5.026,4.624,9.334A79.231,79.231,0,0,1,510.921,29.7,64.779,64.779,0,0,1,508.98,47.4a16.108,16.108,0,0,1-6.141,9.175q-4.2,2.759-11.434,2.762c-4.007.5-9.232-1.466-11.666-4.392S476.082,47.8,476.082,42.3V24.184a1.868,1.868,0,0,0-3.736,0V45.415c.34,3.566-.985,8.281-2.955,10.539a9.744,9.744,0,0,1-7.7,3.385,10.484,10.484,0,0,1-7.579-2.762c-1.449-.781-3.385-4.924-4.313-9.255a87.359,87.359,0,0,1-1.4-17.615,64.729,64.729,0,0,1,1.908-17.5,16.726,16.726,0,0,1,5.949-9.294Q460.3.082,467.145.082c4.562,0,7.856,1.285,10.341,3.849" transform="translate(-194.58 -0.009)" fill="#7400be"/><path d="M604.851,2.4q5.137,2.292,5.134,7.115c.436,2.411-1.268,5.355-3.809,6.572s-6.272,1.828-11.2,1.828h-9.255a1.477,1.477,0,0,0,0,2.955h9.255a21.551,21.551,0,0,1,9.917,1.868q3.456,1.868,3.458,6.923a7.283,7.283,0,0,1-3.458,6.962q-3.464,1.91-9.917,1.908h-9.255a1.477,1.477,0,0,0,0,2.955h9.255a27.764,27.764,0,0,1,11.2,1.789q3.812,1.791,3.809,6.379c.583,2.479-1.7,5.756-5.094,7.307s-8.8,2.332-16.211,2.332c-4.732.249-11.366-.725-14.813-2.179-2.575-.481-5.989-4.279-7.619-8.473S563.8,38.112,563.8,29.661c-.277-6.238.815-14.7,2.451-18.9.758-3.232,4.172-7.024,7.619-8.473,1.76-1.2,8.36-2.179,14.739-2.179,5.553-.26,12.832.764,16.251,2.292" transform="translate(-244.654 -0.03)" fill="#7400be"/><path d="M23.106,114.839a12.662,12.662,0,0,1,5.57,3.464,7.454,7.454,0,0,1-3.158,12.119v.1c0,.051.215.147.481.221a6.322,6.322,0,0,1,2.372,1.443,8.9,8.9,0,0,1,2.338,3.277,11.853,11.853,0,0,1,.934,4.89,9.366,9.366,0,0,1-2.128,6.713,7.847,7.847,0,0,1-5.87,2.174q-6.877,0-6.877-8.564v-18.2a1.121,1.121,0,1,0-2.241,0v18.2a10.7,10.7,0,0,1-1.636,6.272,5.4,5.4,0,0,1-4.681,2.292,6.8,6.8,0,0,1-4.562-1.5c-.866-.379-2.049-2.8-2.643-5.406a52.07,52.07,0,0,1-.889-10.97A42.082,42.082,0,0,1,1.263,120a7.749,7.749,0,0,1,4.07-5.055c.917-.747,4.953-1.358,9.005-1.358a27.107,27.107,0,0,1,8.773,1.262" transform="translate(-0.041 -49.281)" fill="#7400be"/><path d="M74.185,140.269V122.445a1.121,1.121,0,1,0-2.241,0v17.824a1.121,1.121,0,0,0,2.241,0m-10.3,6.6c-1.8-.832-4.155-3.674-5.264-6.34a26.054,26.054,0,0,1,0-18.294c.5-1.941,2.858-4.777,5.264-6.34a16.553,16.553,0,0,1,9.17-2.338,16.536,16.536,0,0,1,9.147,2.338c1.789.838,4.132,3.674,5.241,6.34a26.054,26.054,0,0,1,0,18.294c-.509,1.941-2.853,4.783-5.241,6.34-1.341,1.291-5.434,2.338-9.147,2.338a16.647,16.647,0,0,1-9.17-2.338" transform="translate(-24.709 -49.263)" fill="#7400be"/><path d="M134.716,130.218a1.729,1.729,0,0,1-1.426-1.03,11.742,11.742,0,0,1-.283-3.226v-3.509a1.121,1.121,0,1,0-2.241,0v17.734a1.121,1.121,0,0,0,2.241,0v-2.949a12.7,12.7,0,0,1,.283-3.3c.023-.43.662-.889,1.426-1.03a30.552,30.552,0,0,1,4.517-.209,16.7,16.7,0,0,1,5.123.606,3.805,3.805,0,0,1,2.292,1.823,7.773,7.773,0,0,1,.583,3.323,9.379,9.379,0,0,1-1.591,5.219c-.492,1.183-2.711,2.972-4.958,4a20.342,20.342,0,0,1-8.468,1.545A16.736,16.736,0,0,1,123,146.876c-1.8-.832-4.155-3.674-5.264-6.339a26.054,26.054,0,0,1,0-18.294c.5-1.941,2.858-4.777,5.264-6.34a16.6,16.6,0,0,1,9.215-2.338,17.906,17.906,0,0,1,8.3,1.755,12.714,12.714,0,0,1,5.055,4.375,9.645,9.645,0,0,1,1.658,5.19,7.332,7.332,0,0,1-.583,3.181c-.13.577-1.155,1.37-2.292,1.777a15.7,15.7,0,0,1-5.123.611,28.874,28.874,0,0,1-4.517-.232" transform="translate(-50.361 -49.27)" fill="#7400be"/><path d="M203.318,133.246a7.832,7.832,0,0,0-5.123-3.136v-.1a2.82,2.82,0,0,1,.951-.266c.832.085,2.541-1.138,3.821-2.728a8.968,8.968,0,0,0,1.919-5.8,6.916,6.916,0,0,0-7.489-7.675,6.469,6.469,0,0,0-5.168,2.038q-1.758,2.038-1.755,6.623v4.868a1.121,1.121,0,1,1-2.241,0V122.2q0-8.652-6.549-8.655a6.22,6.22,0,0,0-4.33,1.545c-.838.413-2.021,2.83-2.643,5.406a47.725,47.725,0,0,0-.934,10.692,50.578,50.578,0,0,0,.934,10.947,10.987,10.987,0,0,0,2.643,5.5,6.144,6.144,0,0,0,4.33,1.568,5.887,5.887,0,0,0,4.794-2.106q1.758-2.106,1.755-6.362v-4.817a1.121,1.121,0,0,1,2.241,0v4.868a9.7,9.7,0,0,0,1.777,6.362,6.656,6.656,0,0,0,5.332,2.06,7.3,7.3,0,0,0,5.66-2.247c1.138-.736,2.06-3.713,2.06-6.645a11.5,11.5,0,0,0-1.987-7.064" transform="translate(-75.407 -49.259)" fill="#7400be"/><path d="M250.083,119.79a8.559,8.559,0,0,1,4.726-5,25.052,25.052,0,0,1,8.751-1.217,23.762,23.762,0,0,1,9.543,1.5q3.184,1.494,3.181,4.3a3.883,3.883,0,0,1-2.292,3.815,15.047,15.047,0,0,1-6.362,1.1h-4.115a.889.889,0,0,0,0,1.777h4.115a11.74,11.74,0,0,1,5.615,1.149,4.2,4.2,0,0,1,2.06,4,4.767,4.767,0,0,1-2.083,4.3q-2.08,1.358-6.385,1.358c-.9.006-2.275-.017-3.074-.057a1.04,1.04,0,0,0-1.087,1.087c.017.391.034.781.04.974,0,.108.006.979.006,1.941a9.769,9.769,0,0,1-1.777,5.926,5.749,5.749,0,0,1-4.913,2.434,5.913,5.913,0,0,1-4.189-1.5c-.792-.379-1.9-2.807-2.479-5.428-.481-1.353-.866-6.317-.866-11.088a31.577,31.577,0,0,1,1.591-11.371" transform="translate(-107.829 -49.275)" fill="#7400be"/><path d="M322.545,114.946q3.091,1.384,3.091,4.279a4.009,4.009,0,0,1-2.292,3.957,16.178,16.178,0,0,1-6.736,1.1h-5.57a.889.889,0,0,0,0,1.777h5.57a12.973,12.973,0,0,1,5.966,1.121q2.08,1.121,2.083,4.166a4.38,4.38,0,0,1-2.083,4.189,12.574,12.574,0,0,1-5.966,1.149h-5.57a.889.889,0,0,0,0,1.777h5.57a16.67,16.67,0,0,1,6.736,1.075,3.882,3.882,0,0,1,2.292,3.838c.351,1.494-1.025,3.464-3.062,4.4s-5.292,1.4-9.753,1.4a24.315,24.315,0,0,1-8.915-1.308c-1.551-.289-3.6-2.575-4.585-5.1s-1.472-6.334-1.472-11.417a33.886,33.886,0,0,1,1.472-11.371,8.521,8.521,0,0,1,4.585-5.1c1.058-.725,5.032-1.308,8.864-1.308a26.035,26.035,0,0,1,9.775,1.381" transform="translate(-129.247 -49.276)" fill="#7400be"/><path d="M350.431,118.548c.7-1.143,3.141-2.774,5.451-3.651a21.847,21.847,0,0,1,7.766-1.308,25.6,25.6,0,0,1,7.721,1.053,11.354,11.354,0,0,1,4.891,2.853,5.7,5.7,0,0,1,1.658,3.957,3.565,3.565,0,0,1-2.389,3.651,20.21,20.21,0,0,1-7.019.934h-6.736a1.121,1.121,0,1,0,0,2.241h5.332a14.568,14.568,0,0,1,5.943,1.121,8.869,8.869,0,0,1,3.928,3.249,9.035,9.035,0,0,1,1.4,5.077,10.216,10.216,0,0,1-1.851,6.13c-.617,1.262-3.034,3.04-5.406,3.979a26.263,26.263,0,0,1-15.911.328,11.881,11.881,0,0,1-5.168-3.136,6.837,6.837,0,0,1-1.9-4.772,4.408,4.408,0,0,1,1.426-3.628,6.113,6.113,0,0,1,3.651-1.262,20.406,20.406,0,0,1,4.891.4l8.066,1.562a1.124,1.124,0,0,0,.425-2.208l-8.541-1.647a13.967,13.967,0,0,1-7.347-3.323c-1.268-.843-2.292-3.651-2.292-6.272-.226-1.387.662-3.775,1.987-5.332" transform="translate(-151.077 -49.295)" fill="#7400be"/><path d="M406.547,115.266q3.863-1.707,11.954-1.709c4.03-.2,9.373.572,11.932,1.709s3.838,2.909,3.838,5.309a4.929,4.929,0,0,1-2.315,4.653,11.112,11.112,0,0,1-5.281,1.24,1.307,1.307,0,0,0-1.313,1.545c.17,1.591.345,4.477.345,7.064.2,3.809-.6,8.672-1.8,10.856a5.809,5.809,0,0,1-5.406,3.277c-1.783.374-4.206-1.092-5.406-3.277s-1.8-5.8-1.8-10.856c0-2.587.17-5.473.345-7.064a1.309,1.309,0,0,0-1.313-1.545,9.853,9.853,0,0,1-5.3-1.24c-1.291-.357-2.338-2.44-2.338-4.653-.442-1.794,1.285-4.172,3.86-5.309" transform="translate(-174.725 -49.267)" fill="#7400be"/><path d="M460.152,120.446a10.614,10.614,0,0,1,2.36-5.355,6.4,6.4,0,0,1,8.287,0c.775.4,1.834,2.8,2.36,5.355a55.956,55.956,0,0,1,.792,10.76,59.93,59.93,0,0,1-.792,11.021,10.9,10.9,0,0,1-2.36,5.451,6.327,6.327,0,0,1-8.287,0c-.775-.408-1.834-2.847-2.36-5.451-.441-1.341-.792-6.277-.792-11.021a57.36,57.36,0,0,1,.792-10.76" transform="translate(-199.343 -49.274)" fill="#7400be"/><path d="M495.333,146.378c-1.766-.951-4.489-4.545-6.085-8.026a28.814,28.814,0,0,1-2.383-12.1,20.664,20.664,0,0,1,1.755-9.475q1.758-3.252,6.243-3.255,6.92,0,6.922,8.564v17.122a1.121,1.121,0,1,0,2.241,0V122.089q0-8.558,6.923-8.564a6.484,6.484,0,0,1,6.243,3.255q1.758,3.252,1.755,9.475a28.859,28.859,0,0,1-2.383,12.1,20.571,20.571,0,0,1-6.085,8.026,12.43,12.43,0,0,1-7.579,2.808c-1.721.323-5.117-.934-7.579-2.808" transform="translate(-211.272 -49.242)" fill="#7400be"/><path d="M550.633,149.221a7.52,7.52,0,0,1-6.011-2.315,8.693,8.693,0,0,1-1.987-5.87c-.464-2.462,1.358-9.917,4.07-16.658a33.365,33.365,0,0,1,3.345-6.458,10.005,10.005,0,0,1,3.764-3.345,13.526,13.526,0,0,1,10.245,0,9.8,9.8,0,0,1,3.764,3.323,30.851,30.851,0,0,1,3.345,6.481q4.16,10.2,4.166,16.658a8.693,8.693,0,0,1-1.987,5.87q-1.987,2.318-6.056,2.315-7.208,0-7.206-8.19V122.459a1.121,1.121,0,1,0-2.241,0V141.03q0,8.185-7.205,8.19" transform="translate(-235.457 -49.277)" fill="#7400be"/><path d="M602.991,120.474a10.539,10.539,0,0,1,2.553-5.428,6.094,6.094,0,0,1,4.234-1.494c1.715-.323,4.041.934,5.2,2.807s1.732,5.055,1.732,9.543a38.8,38.8,0,0,1-.306,5.638,4.427,4.427,0,0,1-1.03,2.5,3.233,3.233,0,0,1-2.224.657h-3.04a1.121,1.121,0,0,0,0,2.241h6.877q9.636,0,9.639,5.706c.306,1.568-.889,3.736-2.666,4.845s-4.443,1.658-8,1.658a19.128,19.128,0,0,1-8.377-1.494c-1.483-.4-3.368-2.745-4.211-5.241-.7-1.251-1.262-6.113-1.262-10.856A53.941,53.941,0,0,1,603,120.468" transform="translate(-261.292 -49.256)" fill="#7400be"/></g></g></svg>